<svg width="45" height="45" viewBox="0 0 45 45" fill="none" xmlns="http://www.w3.org/2000/svg">
<path fill-rule="evenodd" clip-rule="evenodd" d="M11.3419 10.0416C13.6247 8.89781 17.4825 7.5 21.7172 7.5C25.8732 7.5 29.6372 8.84719 31.9097 9.97781L32.0232 10.0341C32.6354 10.3434 33.1332 10.635 33.4932 10.875L31.0369 14.4647L29.6494 15.1847C24.8719 17.595 18.465 17.595 13.6866 15.1847L12.465 14.6972L9.86816 10.875C10.1598 10.686 10.4587 10.5087 10.7644 10.3434C10.9438 10.2459 11.1363 10.1453 11.3419 10.0416ZM12.9582 11.145C13.8244 11.4169 14.7432 11.655 15.6769 11.8275C17.701 12.2006 19.7391 12.2559 21.4829 11.7525C23.6991 11.1113 26.025 10.5909 28.2047 10.2834C26.3447 9.67125 24.0957 9.1875 21.7172 9.1875C18.2841 9.1875 15.0966 10.1953 12.9582 11.145Z" fill="#FF4F4F"/>
<path d="M30.4097 16.6912L30.6394 16.575C32.9897 19.0856 35.19 22.3096 36.5006 25.5937C35.0909 24.7923 33.4966 24.3722 31.875 24.375C30.2605 24.3748 28.6734 24.7915 27.2673 25.5848C25.8612 26.3781 24.6837 27.5211 23.8491 28.9031C23.1936 28.3986 22.3896 28.1251 21.5625 28.125V24.375C22.3781 24.375 23.0728 24.8953 23.3316 25.6246C23.37 25.744 23.4319 25.8544 23.5137 25.9494C23.5955 26.0443 23.6955 26.1219 23.8079 26.1776C23.9202 26.2332 24.0425 26.2658 24.1676 26.2733C24.2928 26.2809 24.4181 26.2632 24.5363 26.2215C24.6545 26.1797 24.7631 26.1147 24.8558 26.0302C24.9484 25.9457 25.0231 25.8436 25.0756 25.7297C25.128 25.6158 25.1571 25.4926 25.161 25.3673C25.165 25.242 25.1438 25.1172 25.0988 25.0003C24.8403 24.269 24.3614 23.6358 23.7281 23.188C23.0947 22.7402 22.3381 22.4998 21.5625 22.5V21.5625H19.6875V22.5C18.6929 22.5 17.7391 22.895 17.0359 23.5983C16.3326 24.3016 15.9375 25.2554 15.9375 26.25C15.9375 27.2445 16.3326 28.1983 17.0359 28.9016C17.7391 29.6049 18.6929 30 19.6875 30V33.7499C18.8719 33.7499 18.1772 33.2296 17.9184 32.5003C17.8801 32.3809 17.8181 32.2705 17.7363 32.1755C17.6545 32.0806 17.5545 32.003 17.4422 31.9473C17.3298 31.8917 17.2075 31.8591 17.0824 31.8516C16.9572 31.844 16.8319 31.8617 16.7137 31.9034C16.5955 31.9452 16.4869 32.0102 16.3942 32.0947C16.3016 32.1792 16.2269 32.2813 16.1745 32.3952C16.122 32.5091 16.0929 32.6323 16.089 32.7576C16.085 32.8829 16.1062 33.0077 16.1513 33.1246C16.4097 33.8559 16.8886 34.4891 17.5219 34.9369C18.1553 35.3847 18.9119 35.6251 19.6875 35.6249V36.5624H21.5625V35.6249C21.9438 35.6237 22.3084 35.5696 22.6566 35.4628C23.0639 37.6538 24.2385 39.6281 25.9697 41.0315C24.6797 41.1721 23.2641 41.2471 21.7172 41.2471C-1.215 41.2471 4.81313 25.244 12.7078 16.5815L12.9272 16.6912C18.1828 19.3425 25.1541 19.3425 30.4097 16.6912Z" fill="#FF4F4F"/>
<path d="M21.5625 30C22.1466 30 22.6688 30.2672 23.0119 30.6863C22.6999 31.5917 22.5286 32.5395 22.5038 33.4969C22.2272 33.6581 21.9056 33.75 21.5625 33.75V30ZM17.8125 26.25C17.8125 25.7527 18.01 25.2758 18.3617 24.9242C18.7133 24.5725 19.1902 24.375 19.6875 24.375V28.125C19.1902 28.125 18.7133 27.9275 18.3617 27.5758C18.01 27.2242 17.8125 26.7473 17.8125 26.25Z" fill="#FF4F4F"/>
<path fill-rule="evenodd" clip-rule="evenodd" d="M31.5 26C29.5109 26 27.6032 26.7902 26.1967 28.1967C24.7902 29.6032 24 31.5109 24 33.5C24 35.4891 24.7902 37.3968 26.1967 38.8033C27.6032 40.2098 29.5109 41 31.5 41C33.4891 41 35.3968 40.2098 36.8033 38.8033C38.2098 37.3968 39 35.4891 39 33.5C39 31.5109 38.2098 29.6032 36.8033 28.1967C35.3968 26.7902 33.4891 26 31.5 26ZM30.5625 33.1063L29.4469 34.1066L28.1953 32.7097L31.5 29.7491L34.8047 32.7116L33.5531 34.1075L32.4375 33.1063V37.25H30.5625V33.1063Z" fill="#FF4F4F"/>
</svg>
